<svg width="169" height="169" viewBox="0 0 169 169" fill="none" xmlns="http://www.w3.org/2000/svg">
<mask id="mask0_3_169" style="mask-type:luminance" maskUnits="userSpaceOnUse" x="0" y="-1" width="169" height="170">
<path d="M0 74.0245L94.5991 0L168.624 94.5991L74.0245 168.624L0 74.0245Z" fill="white"/>
</mask>
<g mask="url(#mask0_3_169)">
<path d="M101.221 101.124C101.455 104.075 99.3737 105.704 96.5677 104.765L75.0437 101.253C72.2358 100.312 69.7696 97.1602 69.5347 94.2132L63.508 62.5161C63.2731 59.5692 65.3543 57.9406 68.1608 58.8753L97.4788 72.3468C100.283 73.2834 102.749 76.435 102.988 79.3869L101.221 101.124Z" fill="#F4900C"/>
<path d="M128.766 87.5964C129.001 90.5478 126.92 92.1763 124.114 91.2372L102.59 87.726C99.7817 86.7845 97.3175 83.6353 97.0806 80.6859L96.0328 45.0927C95.7979 42.1458 97.8791 40.5173 100.686 41.4519L125.025 58.8194C127.831 59.7585 130.295 62.9077 130.534 65.8596L128.766 87.5964Z" fill="#F4900C"/>
<path d="M81.4671 124.609C81.7015 127.56 79.6178 129.191 76.8094 128.254L55.2878 124.741C52.4799 123.799 50.0157 120.65 49.7789 117.701L38.7707 89.9014C38.5383 86.9525 40.622 85.322 43.4285 86.2567L77.7254 95.8321C80.5314 96.7712 82.9956 99.9204 83.2344 102.872L81.4671 124.609Z" fill="#F4900C"/>
<path d="M108.018 37.6654C107.265 43.8643 106.782 50.093 106.571 56.3338L77.959 43.1849C75.1506 42.2478 73.0694 43.8763 73.3037 46.8277L79.1852 77.7595L50.5751 64.6131C47.7666 63.6759 45.6829 65.3064 45.9173 68.2578L51.8012 99.1876C45.6933 97.8925 39.5319 96.8642 33.3345 96.1058C28.897 95.5643 25.3171 98.6065 30.3036 102.491C40.5851 110.501 46.4291 117.969 56.1692 130.417L60.0652 135.396C62.1318 138.037 65.1629 139.748 68.4916 140.155C71.8204 140.561 75.1741 139.628 77.8151 137.561L137.562 90.809C140.203 88.7424 141.915 85.7113 142.321 82.3826C142.727 79.0538 141.794 75.7001 139.728 73.0591L135.832 68.0802C126.092 55.633 120.248 48.1646 114.945 36.2588C112.371 30.4864 108.559 33.2279 108.018 37.6654Z" fill="#FFCC4D"/>
<path d="M99.5732 88.4252C101.123 90.4059 101.823 92.9213 101.518 95.4178C101.214 97.9144 99.9297 100.188 97.9489 101.738C95.9682 103.288 93.4529 103.987 90.9563 103.683C88.4598 103.378 86.1865 102.094 84.6365 100.113C83.0866 98.1326 82.387 95.6172 82.6916 93.1207C82.9962 90.6241 84.2801 88.3508 86.2608 86.8009C88.2416 85.251 90.7569 84.5514 93.2534 84.856C95.75 85.1606 98.0233 86.4445 99.5732 88.4252Z" fill="#E333A3"/>
<path d="M116.999 74.7892C117.511 75.4433 117.888 76.1918 118.111 76.9919C118.333 77.7921 118.396 78.6281 118.295 79.4524C118.194 80.2767 117.932 81.0731 117.523 81.7961C117.115 82.5191 116.568 83.1545 115.914 83.6661C115.259 84.1777 114.511 84.5554 113.711 84.7778C112.911 85.0001 112.075 85.0627 111.25 84.9619C110.426 84.8611 109.63 84.5989 108.907 84.1904C108.184 83.7818 107.548 83.2349 107.037 82.5807C106.003 81.2596 105.537 79.5822 105.741 77.9175C105.944 76.2528 106.801 74.7371 108.122 73.7038C109.443 72.6706 111.121 72.2045 112.785 72.4081C114.45 72.6116 115.966 73.4681 116.999 74.7892Z" fill="#E333A3"/>
<path d="M134.425 61.1535C134.936 61.8076 135.314 62.5561 135.536 63.3562C135.759 64.1563 135.821 64.9924 135.72 65.8167C135.62 66.641 135.358 67.4374 134.949 68.1603C134.54 68.8833 133.993 69.5187 133.339 70.0303C132.685 70.5419 131.937 70.9197 131.137 71.142C130.336 71.3644 129.5 71.4269 128.676 71.3261C127.852 71.2253 127.055 70.9632 126.332 70.5546C125.61 70.1461 124.974 69.5991 124.462 68.945C123.429 67.6239 122.963 65.9465 123.167 64.2818C123.37 62.617 124.227 61.1013 125.548 60.0681C126.869 59.0349 128.546 58.5688 130.211 58.7723C131.876 58.9759 133.391 59.8324 134.425 61.1535Z" fill="#E333A3"/>
<path d="M77.1673 105.957C78.2006 107.278 78.667 108.955 78.464 110.619C78.2609 112.283 77.405 113.799 76.0845 114.832C74.764 115.865 73.0871 116.332 71.4227 116.129C69.7584 115.926 68.2428 115.07 67.2095 113.749C66.1763 112.429 65.7098 110.752 65.9129 109.087C66.116 107.423 66.9719 105.908 68.2924 104.874C69.6129 103.841 71.2898 103.375 72.9542 103.578C74.6185 103.781 76.1341 104.637 77.1673 105.957Z" fill="#E333A3"/>
<path d="M59.7416 119.594C60.7749 120.914 61.2413 122.591 61.0382 124.256C60.8351 125.92 59.9792 127.436 58.6587 128.469C57.3382 129.502 55.6613 129.969 53.997 129.765C52.3326 129.562 50.8171 128.706 49.7838 127.386C48.7505 126.065 48.2841 124.389 48.4871 122.724C48.6902 121.06 49.5461 119.544 50.8666 118.511C52.1871 117.478 53.864 117.011 55.5284 117.214C57.1927 117.417 58.7083 118.273 59.7416 119.594Z" fill="#E333A3"/>
<path d="M139.727 73.0589C141.793 75.6999 142.726 79.0536 142.32 82.3824C141.914 85.7111 140.202 88.7422 137.561 90.8088L77.8143 137.561C75.1734 139.628 71.8196 140.56 68.4909 140.154C65.1621 139.748 62.1311 138.036 60.0645 135.395L139.727 73.0589Z" fill="#FFAC33"/>
</g>
</svg>
