<?xml version="1.0" encoding="UTF-8"?>
<svg id="Layer_1" data-name="Layer 1" xmlns="http://www.w3.org/2000/svg" xmlns:xlink="http://www.w3.org/1999/xlink" viewBox="0 0 1228.79 614.79">
  <defs>
    <style>
      .cls-1 {
        fill: #ea9719;
        stroke: #1a1a1a;
        stroke-width: 4px;
        stroke-linejoin: round;
      }

      .cls-2 {
        fill: #231f20;
        stroke: #fff;
        stroke-miterlimit: 10;
        stroke-width: 7px;
      }

      .cls-2-outer {
        fill: none;
        stroke: #1a1a1a;
        stroke-width: 7px;
      }

      .cls-3 {
        fill: #fdb813;
        stroke: #1a1a1a;
        stroke-width: 4px;
        stroke-linejoin: round;
      }
    </style>
  </defs>
  <g transform="scale(1.3) translate(-60, -40)">
    <path class="cls-1" d="M405.85,235.11h-167.82c-24.35,0-44.1-19.74-44.1-44.1v-66.33c0-24.35,19.74-44.1,44.1-44.1h108.3c3.65.3,8.9,1.16,14.75,3.63,6.53,2.76,11.15,6.41,13.98,9.03,15.74,11.78,31.48,23.55,47.23,35.33,92.15.31,184.31.63,276.46.94,2.81-.21,21.49-1.27,35.2,12.93,8.58,8.89,10.77,19.17,11.43,23.37-.07,12.7-.14,25.4-.2,38.1-85.66-17.62-195.76-23.77-308.15,18.29-10.76,4.03-21.15,8.35-31.18,12.92h0Z"/>
    <rect class="cls-3" x="193.94" y="164.01" width="551.45" height="329.72" rx="28.2" ry="28.2"/>
    <g transform="translate(150, 0)">
      <path class="cls-2-outer" d="M7.33,321.33c27.87-19.37,55.74-38.73,83.61-58.1-4.95,35.61-9.9,71.22-14.85,106.83-6.48-7.36-12.96-14.73-19.44-22.09-8.29,15.52-16.58,31.04-24.87,46.55-6.83-4.38-13.66-8.77-20.48-13.15,8.95-15.9,17.9-31.81,26.85-47.71-10.27-4.11-20.55-8.22-30.82-12.33Z"/>
      <path class="cls-2" d="M7.33,321.33c27.87-19.37,55.74-38.73,83.61-58.1-4.95,35.61-9.9,71.22-14.85,106.83-6.48-7.36-12.96-14.73-19.44-22.09-8.29,15.52-16.58,31.04-24.87,46.55-6.83-4.38-13.66-8.77-20.48-13.15,8.95-15.9,17.9-31.81,26.85-47.71-10.27-4.11-20.55-8.22-30.82-12.33Z"/>
    </g>
  </g>
</svg>